<mxfile host="app.diagrams.net" modified="2023-10-23T06:58:29.963Z" agent="Mozilla/5.0 (Windows NT 10.0; Win64; x64) AppleWebKit/537.36 (KHTML, like Gecko) Chrome/118.0.0.0 Safari/537.36" version="22.0.6" etag="SvT82Npo1ORHMoIR6Ilt" type="github">
  <diagram name="페이지-1" id="GrNYrT5S5Ospv8tO6qub">
    <mxGraphModel>
      <root>
        <mxCell id="0" />
        <mxCell id="1" parent="0" />
      </root>
    </mxGraphModel>
  </diagram>
</mxfile>
